<svg width="48" height="47" viewBox="0 0 48 47" fill="none" xmlns="http://www.w3.org/2000/svg">
<path d="M0 0.674316V46.348H47.64V0.674316H0ZM46.411 1.90329V8.5668H1.22898V1.90329H46.411ZM1.22898 45.119V9.79577H46.411V45.119H1.22898Z" fill="#34E8BB"/>
<path d="M33.2021 15.7306H39.6702L21.3081 35.007L14.384 29.076L6.08105 38.4113L7.00033 39.2286L14.5008 30.7941L21.3941 36.6981L40.4899 16.6523V23.0086H41.7189V14.5016H33.2021V15.7306Z" fill="#34E8BB"/>
<path d="M39.1293 4.31335H19.376V6.15682H39.1293V4.31335Z" fill="#34E8BB"/>
<path d="M7.45772 4.31335H5.61426V6.15682H7.45772V4.31335Z" fill="#34E8BB"/>
<path d="M11.4089 4.31335H9.56543V6.15682H11.4089V4.31335Z" fill="#34E8BB"/>
</svg>
