<svg width="68" height="68" viewBox="0 0 68 68" fill="none" xmlns="http://www.w3.org/2000/svg">
<circle cx="34" cy="34" r="34" fill="#EEEEEE"/>
<path fill-rule="evenodd" clip-rule="evenodd" d="M45.6364 49H24.3636C23.0582 49 22 48.0357 22 46.8462V23.1538C22 21.9643 23.0582 21 24.3636 21H36.1832V28.8322C36.1832 30.4543 37.6262 31.7693 39.4063 31.7693H48V46.8462C48 48.0357 46.9418 49 45.6364 49ZM46.8182 29.6154L38.5468 22.0782V28.8322C38.5468 29.3729 38.813 29.6154 39.4063 29.6154H46.8182ZM25.5456 36.0769C25.5456 35.4822 26.0747 35 26.7274 35H35.0002C35.6529 35 36.182 35.4822 36.182 36.0769C36.182 36.6717 35.6529 37.1538 35.0002 37.1538H26.7274C26.0747 37.1538 25.5456 36.6717 25.5456 36.0769ZM26.7274 41.4615C26.0747 41.4615 25.5456 41.9437 25.5456 42.5385C25.5456 43.1332 26.0747 43.6154 26.7274 43.6154H42.0911C42.7438 43.6154 43.2729 43.1332 43.2729 42.5385C43.2729 41.9437 42.7438 41.4615 42.0911 41.4615H26.7274Z" fill="#313131"/>
</svg>
