<svg width="40" height="40" viewBox="0 0 40 40" fill="none" xmlns="http://www.w3.org/2000/svg">
<circle cx="20" cy="20" r="19.5" stroke="#313131"/>
<path d="M20.498 16.6518C18.3685 16.6518 16.6498 18.3704 16.6498 20.5C16.6498 22.6296 18.3685 24.3482 20.498 24.3482C22.6275 24.3482 24.3461 22.6296 24.3461 20.5C24.3461 18.3704 22.6275 16.6518 20.498 16.6518ZM20.498 23.0011C19.1208 23.0011 17.997 21.8772 17.997 20.5C17.997 19.1228 19.1208 17.9989 20.498 17.9989C21.8751 17.9989 22.999 19.1228 22.999 20.5C22.999 21.8772 21.8751 23.0011 20.498 23.0011ZM24.5037 15.5973C24.0065 15.5973 23.605 15.9988 23.605 16.496C23.605 16.9933 24.0065 17.3948 24.5037 17.3948C25.0009 17.3948 25.4025 16.9951 25.4025 16.496C25.4026 16.378 25.3795 16.261 25.3343 16.1519C25.2892 16.0428 25.223 15.9437 25.1396 15.8602C25.0561 15.7767 24.9569 15.7105 24.8478 15.6654C24.7387 15.6203 24.6218 15.5972 24.5037 15.5973ZM27.9992 20.5C27.9992 19.4643 28.0085 18.438 27.9504 17.4042C27.8922 16.2033 27.6183 15.1376 26.7402 14.2595C25.8603 13.3796 24.7964 13.1075 23.5956 13.0493C22.56 12.9912 21.5337 13.0006 20.4999 13.0006C19.4642 13.0006 18.4379 12.9912 17.4041 13.0493C16.2033 13.1075 15.1376 13.3814 14.2595 14.2595C13.3796 15.1395 13.1075 16.2033 13.0493 17.4042C12.9912 18.4399 13.0006 19.4662 13.0006 20.5C13.0006 21.5338 12.9912 22.562 13.0493 23.5958C13.1075 24.7967 13.3814 25.8624 14.2595 26.7405C15.1395 27.6204 16.2033 27.8925 17.4041 27.9507C18.4398 28.0088 19.4661 27.9994 20.4999 27.9994C21.5355 27.9994 22.5618 28.0088 23.5956 27.9507C24.7964 27.8925 25.8621 27.6186 26.7402 26.7405C27.6202 25.8605 27.8922 24.7967 27.9504 23.5958C28.0104 22.562 27.9992 21.5357 27.9992 20.5ZM26.3481 24.9242C26.2111 25.2657 26.046 25.5209 25.7815 25.7836C25.5169 26.0481 25.2636 26.2132 24.9221 26.3502C23.9352 26.7423 21.5918 26.6542 20.498 26.6542C19.4041 26.6542 17.0588 26.7423 16.072 26.3521C15.7305 26.2151 15.4753 26.05 15.2126 25.7854C14.9481 25.5209 14.783 25.2676 14.646 24.9261C14.2558 23.9373 14.3439 21.5939 14.3439 20.5C14.3439 19.4061 14.2558 17.0608 14.646 16.0739C14.783 15.7324 14.9481 15.4772 15.2126 15.2146C15.4772 14.9519 15.7305 14.7849 16.072 14.6479C17.0588 14.2577 19.4041 14.3458 20.498 14.3458C21.5918 14.3458 23.9371 14.2577 24.924 14.6479C25.2655 14.7849 25.5207 14.95 25.7833 15.2146C26.0479 15.4791 26.213 15.7324 26.35 16.0739C26.7402 17.0608 26.652 19.4061 26.652 20.5C26.652 21.5939 26.7402 23.9373 26.3481 24.9242Z" fill="#313131"/>
</svg>
