<svg width="40" height="40" viewBox="0 0 40 40" fill="none" xmlns="http://www.w3.org/2000/svg">
<circle cx="20" cy="20" r="19.5" stroke="#313131"/>
<path d="M13.188 15.376C14.3964 15.376 15.376 14.3964 15.376 13.188C15.376 11.9796 14.3964 11 13.188 11C11.9796 11 11 11.9796 11 13.188C11 14.3964 11.9796 15.376 13.188 15.376Z" fill="#313131"/>
<path d="M17.4428 17.0334V29.1724H21.2118V23.1694C21.2118 21.5854 21.5098 20.0514 23.4738 20.0514C25.4108 20.0514 25.4348 21.8624 25.4348 23.2694V29.1734H29.2058V22.5164C29.2058 19.2464 28.5018 16.7334 24.6798 16.7334C22.8448 16.7334 21.6148 17.7404 21.1118 18.6934H21.0608V17.0334H17.4428ZM11.3008 17.0334H15.0758V29.1724H11.3008V17.0334Z" fill="#313131"/>
</svg>
