<svg width="68" height="68" viewBox="0 0 68 68" fill="none" xmlns="http://www.w3.org/2000/svg">
<circle cx="34" cy="34" r="34" fill="#EEEEEE"/>
<path fill-rule="evenodd" clip-rule="evenodd" d="M28.9037 35.0005H28.6471C24.4237 35.0005 21 38.2925 21 42.3534V45.0592C21 46.6836 22.3695 48.0003 24.0588 48.0003H43.9412C45.6305 48.0003 47 46.6836 47 45.0592V42.3534C47 38.2925 43.5763 35.0005 39.3529 35.0005H39.0963C38.1495 36.7813 36.2228 38.0005 34 38.0005C31.7772 38.0005 29.8505 36.7813 28.9037 35.0005Z" fill="#313131"/>
<path d="M40.2602 27.9999C40.2602 32.2242 37.3819 35.4998 34.0002 35.4998C30.6185 35.4998 27.7402 32.2242 27.7402 27.9999C27.7402 23.7756 30.6185 20.5 34.0002 20.5C37.3819 20.5 40.2602 23.7756 40.2602 27.9999Z" stroke="#313131"/>
<path d="M34.0002 20C30.2668 20 27.2402 23.5817 27.2402 27.9999C30.9413 29.1911 34.7648 26.2499 36.2942 24.4117C36.6766 25.5146 37.0589 28.8234 40.7602 27.9999C40.7602 23.5817 37.7337 20 34.0002 20Z" fill="#313131"/>
</svg>
