<svg width="68" height="68" viewBox="0 0 68 68" fill="none" xmlns="http://www.w3.org/2000/svg">
<circle cx="34" cy="34" r="34" fill="#EEEEEE"/>
<path fill-rule="evenodd" clip-rule="evenodd" d="M31.5 38.9C36.1392 38.9 39.9 35.1392 39.9 30.5C39.9 25.8608 36.1392 22.1 31.5 22.1C26.8608 22.1 23.1 25.8608 23.1 30.5C23.1 35.1392 26.8608 38.9 31.5 38.9ZM31.5 41C37.299 41 42 36.299 42 30.5C42 24.701 37.299 20 31.5 20C25.701 20 21 24.701 21 30.5C21 36.299 25.701 41 31.5 41Z" fill="#313131"/>
<path opacity="0.3" fill-rule="evenodd" clip-rule="evenodd" d="M31.4996 38.9001C36.1388 38.9001 39.8996 35.1393 39.8996 30.5001C39.8996 25.8609 36.1388 22.1001 31.4996 22.1001C26.8604 22.1001 23.0996 25.8609 23.0996 30.5001C23.0996 35.1393 26.8604 38.9001 31.4996 38.9001Z" fill="#313131"/>
<path d="M36.4297 38.1841L37.8844 36.6174L45.8856 45.2343C46.2873 45.6669 46.2873 46.3684 45.8856 46.801C45.4839 47.2336 44.8326 47.2336 44.4309 46.801L36.4297 38.1841Z" fill="#313131"/>
<path d="M40.745 43.6628C40.3432 43.2301 40.3432 42.5287 40.745 42.096L41.5179 41.2637C41.9196 40.831 42.5709 40.831 42.9726 41.2637L45.8861 44.4014C46.5013 45.0639 46.5013 46.138 45.8861 46.8005C45.271 47.463 44.2736 47.463 43.6585 46.8005L40.745 43.6628Z" fill="#313131"/>
</svg>
