<svg width="68" height="68" viewBox="0 0 68 68" fill="none" xmlns="http://www.w3.org/2000/svg">
<circle cx="34" cy="34" r="34" fill="#EEEEEE"/>
<path fill-rule="evenodd" clip-rule="evenodd" d="M33 46C39.6274 46 45 40.6274 45 34C45 32.8361 44.8343 31.7109 44.5252 30.6467L34.5655 38.6145C34.1428 38.9526 33.6011 39.105 33.0642 39.0368C32.5272 38.9687 32.0408 38.6858 31.7161 38.2528L27.6108 32.7791C26.9481 31.8954 27.1271 30.6418 28.0108 29.9791C28.8945 29.3163 30.1481 29.4954 30.8108 30.3791L33.678 34.202L42.7232 26.9658C40.5427 23.957 36.9999 22 33 22C26.3726 22 21 27.3726 21 34C21 40.6274 26.3726 46 33 46Z" fill="#331111"/>
<path d="M29.2109 31.5792L33.3162 37.0528L47.0004 26.1055" stroke="#331111" stroke-width="2" stroke-linecap="round" stroke-linejoin="round"/>
</svg>
