<svg width="40" height="40" viewBox="0 0 40 40" fill="none" xmlns="http://www.w3.org/2000/svg">
<circle cx="20" cy="20" r="19.5" stroke="#313131"/>
<path d="M29 13.7818C28.3748 14.0747 27.6945 14.2855 26.9938 14.3676C27.7213 13.8982 28.2661 13.1565 28.526 12.2818C27.8433 12.7229 27.0954 13.0322 26.3155 13.196C25.9895 12.8175 25.5952 12.516 25.1573 12.3102C24.7193 12.1045 24.247 11.9989 23.7699 12C21.8392 12 20.2865 13.6997 20.2865 15.7855C20.2865 16.0784 20.3192 16.3713 20.3723 16.6531C17.4814 16.4889 14.9031 14.9889 13.189 12.6923C12.8767 13.2717 12.713 13.9314 12.7151 14.6028C12.7151 15.9164 13.33 17.0747 14.2678 17.7559C13.7151 17.7323 13.1754 17.5673 12.6926 17.2744V17.321C12.6926 19.1605 13.8898 20.6849 15.4854 21.0355C15.1858 21.12 14.8776 21.1633 14.5681 21.1642C14.3413 21.1642 14.1268 21.1398 13.9102 21.1065C14.3515 22.6065 15.6366 23.696 17.1668 23.7315C15.9696 24.75 14.47 25.3491 12.8417 25.3491C12.5496 25.3491 12.2799 25.338 12 25.3025C13.5445 26.3787 15.3771 27 17.3507 27C23.7576 27 27.2634 21.2352 27.2634 16.2315C27.2634 16.0673 27.2634 15.9031 27.2532 15.7389C27.9315 15.1997 28.526 14.5318 29 13.7818Z" fill="#313131"/>
</svg>
