<svg width="50" height="40" viewBox="0 0 50 40" fill="none" xmlns="http://www.w3.org/2000/svg">
<path d="M44.3475 0H5.45256C4.00645 0 2.61957 0.574463 1.59702 1.59702C0.574464 2.61957 0 4.00645 0 5.45256V33.8058C0 35.252 0.574464 36.6388 1.59702 37.6614C2.61957 38.6839 4.00645 39.2584 5.45256 39.2584H44.3475C45.7936 39.2584 47.1804 38.6839 48.203 37.6614C49.2255 36.6388 49.8 35.252 49.8 33.8058V5.45256C49.8 4.00645 49.2255 2.61957 48.203 1.59702C47.1804 0.574463 45.7936 0 44.3475 0ZM1.21168 34.1088L12.4803 24.4153C12.7864 24.147 13.1737 23.9893 13.5802 23.9673C13.9866 23.9453 14.3887 24.0604 14.7219 24.2942L23.5672 30.4737L15.4489 38.0467H5.45256C4.37837 38.0495 3.34317 37.6445 2.55602 36.9135C1.76886 36.1826 1.2884 35.1802 1.21168 34.1088ZM44.3475 38.0467H17.2664L31.9277 24.3547C32.2105 24.0959 32.5678 23.9331 32.9486 23.8896C33.3295 23.846 33.7143 23.924 34.0482 24.1124L48.5883 32.0489V33.8058C48.5883 34.9306 48.1415 36.0093 47.3462 36.8046C46.5509 37.5999 45.4722 38.0467 44.3475 38.0467ZM48.5883 30.6555L34.5934 23.0219C34.0372 22.7153 33.3987 22.5913 32.7681 22.6674C32.1376 22.7435 31.5469 23.0158 31.0796 23.446L24.4759 29.6256L15.3883 23.2642C14.8388 22.8819 14.1781 22.6924 13.5095 22.7253C12.8409 22.7582 12.202 23.0116 11.6927 23.446L1.21168 32.5336V5.45256C1.21168 4.32781 1.65848 3.24912 2.4538 2.4538C3.24912 1.65848 4.32781 1.21168 5.45256 1.21168H44.3475C45.4722 1.21168 46.5509 1.65848 47.3462 2.4538C48.1415 3.24912 48.5883 4.32781 48.5883 5.45256V30.6555Z" fill="#157292"/>
<path d="M22.7192 6.24013C21.3148 6.22812 19.9384 6.63362 18.7648 7.40516C17.5912 8.1767 16.6732 9.27951 16.1274 10.5736C15.5816 11.8677 15.4326 13.2948 15.6992 14.6738C15.9658 16.0528 16.6361 17.3214 17.625 18.3188C18.6138 19.3162 19.8767 19.9974 21.2533 20.2758C22.63 20.5543 24.0583 20.4175 25.357 19.8828C26.6558 19.3481 27.7664 18.4397 28.548 17.2727C29.3296 16.1058 29.7469 14.733 29.747 13.3284C29.747 11.459 29.0085 9.66514 27.6923 8.33755C26.3761 7.00996 24.5886 6.25611 22.7192 6.24013ZM22.7192 19.2051C21.5544 19.2171 20.4123 18.8827 19.438 18.2443C18.4636 17.6059 17.701 16.6923 17.2469 15.6196C16.7928 14.5469 16.6678 13.3635 16.8876 12.2196C17.1075 11.0756 17.6623 10.0229 18.4817 9.19493C19.3011 8.367 20.3481 7.80126 21.4897 7.56955C22.6313 7.33785 23.816 7.45063 24.8933 7.89358C25.9707 8.33654 26.8921 9.08968 27.5405 10.0574C28.189 11.025 28.5352 12.1636 28.5353 13.3284C28.5354 14.8766 27.9245 16.3622 26.8355 17.4626C25.7465 18.5629 24.2673 19.1891 22.7192 19.2051Z" fill="#157292"/>
</svg>
